<?xml version="1.0" encoding="utf-8"?>
<!-- Generator: Adobe Illustrator 18.1.1, SVG Export Plug-In . SVG Version: 6.00 Build 0)  -->
<!DOCTYPE svg PUBLIC "-//W3C//DTD SVG 1.1//EN" "http://www.w3.org/Graphics/SVG/1.1/DTD/svg11.dtd">
<svg version="1.1" id="Layer_1" xmlns="http://www.w3.org/2000/svg" xmlns:xlink="http://www.w3.org/1999/xlink" x="0px" y="0px"
	 viewBox="0 0 1200 380" enable-background="new 0 0 1200 380" xml:space="preserve">
<g id="vlaggen">
	<g id="vlag_7_">
		<line fill="none" stroke="#000000" stroke-width="3" stroke-miterlimit="10" x1="580.7" y1="192.4" x2="580.7" y2="293.2"/>
		<g>
			<path fill="#FFFFFF" stroke="#000000" stroke-width="3" stroke-miterlimit="10" d="M602.8,242.4c-7.4-2-14.7,2-22.1,0
				c0-16.7,0-33.3,0-50c7.4,2,14.7-2,22.1,0C602.8,209,602.8,225.7,602.8,242.4z"/>
		</g>
	</g>
	<g id="vlag_6_">
		<line fill="none" stroke="#000000" stroke-width="3" stroke-miterlimit="10" x1="568.5" y1="203.7" x2="568.5" y2="304.6"/>
		<g>
			<path fill="#FFFFFF" stroke="#000000" stroke-width="3" stroke-miterlimit="10" d="M590.6,253.8c-7.4-2-14.7,2-22.1,0
				c0-16.7,0-33.3,0-50c7.4,2,14.7-2,22.1,0C590.6,220.4,590.6,237.1,590.6,253.8z"/>
		</g>
	</g>
	<g id="vlag_5_">
		<line fill="none" stroke="#000000" stroke-width="3" stroke-miterlimit="10" x1="612.4" y1="192.4" x2="612.4" y2="293.2"/>
		<g>
			<path fill="#FFFFFF" stroke="#000000" stroke-width="3" stroke-miterlimit="10" d="M634.5,242.4c-7.4-2-14.7,2-22.1,0
				c0-16.7,0-33.3,0-50c7.4,2,14.7-2,22.1,0C634.5,209,634.5,225.7,634.5,242.4z"/>
		</g>
	</g>
	<g id="vlag_4_">
		<line fill="none" stroke="#000000" stroke-width="3" stroke-miterlimit="10" x1="600.2" y1="203.7" x2="600.2" y2="304.6"/>
		<g>
			<path fill="#FFFFFF" stroke="#000000" stroke-width="3" stroke-miterlimit="10" d="M622.3,253.8c-7.4-2-14.7,2-22.1,0
				c0-16.7,0-33.3,0-50c7.4,2,14.7-2,22.1,0C622.3,220.4,622.3,237.1,622.3,253.8z"/>
		</g>
	</g>
	<g id="vlag_3_">
		<line fill="none" stroke="#000000" stroke-width="3" stroke-miterlimit="10" x1="644.1" y1="192.4" x2="644.1" y2="293.2"/>
		<g>
			<path fill="#FFFFFF" stroke="#000000" stroke-width="3" stroke-miterlimit="10" d="M666.3,242.4c-7.4-2-14.7,2-22.1,0
				c0-16.7,0-33.3,0-50c7.4,2,14.7-2,22.1,0C666.3,209,666.3,225.7,666.3,242.4z"/>
		</g>
	</g>
	<g id="vlag_2_">
		<line fill="none" stroke="#000000" stroke-width="3" stroke-miterlimit="10" x1="631.9" y1="203.7" x2="631.9" y2="304.6"/>
		<g>
			<path fill="#FFFFFF" stroke="#000000" stroke-width="3" stroke-miterlimit="10" d="M654,253.8c-7.4-2-14.7,2-22.1,0
				c0-16.7,0-33.3,0-50c7.4,2,14.7-2,22.1,0C654,220.4,654,237.1,654,253.8z"/>
		</g>
	</g>
	<g id="vlag_1_">
		<line fill="none" stroke="#000000" stroke-width="3" stroke-miterlimit="10" x1="675.8" y1="192.4" x2="675.8" y2="293.2"/>
		<g>
			<path fill="#FFFFFF" stroke="#000000" stroke-width="3" stroke-miterlimit="10" d="M698,242.4c-7.4-2-14.7,2-22.1,0
				c0-16.7,0-33.3,0-50c7.4,2,14.7-2,22.1,0C698,209,698,225.7,698,242.4z"/>
		</g>
	</g>
	<g id="vlag">
		<line fill="none" stroke="#000000" stroke-width="3" stroke-miterlimit="10" x1="663.6" y1="203.7" x2="663.6" y2="304.6"/>
		<g>
			<path fill="#FFFFFF" stroke="#000000" stroke-width="3" stroke-miterlimit="10" d="M685.8,253.8c-7.4-2-14.7,2-22.1,0
				c0-16.7,0-33.3,0-50c7.4,2,14.7-2,22.1,0C685.8,220.4,685.8,237.1,685.8,253.8z"/>
		</g>
	</g>
</g>
<g id="tent">
	<path fill="none" stroke="#000000" stroke-width="3" stroke-linejoin="round" stroke-miterlimit="10" d="M738.6,237
		c12-5.9,26.5-14.1,40.2-24.5c5.4-4.1,10.7-8.7,15.7-13.6c2.4-2.3,4.6-4.7,6.8-7.2c1.3-1.5,2.6-3,3.8-4.6c0.7-0.8,1.8-0.7,2.4,0.1
		s1.2,1.6,1.8,2.4c2.6,3.4,5.4,6.6,8.1,9.6c3.1,3.3,6.3,6.3,9.4,9c5.8,5,11.6,9.3,16.8,12.5c1.2,0.7,2.4,1.5,3.6,2.2
		c4.8,2.8,8.9,4.7,12,5.8c1.6,0.6,3.3,0.6,4.9-0.1c2.8-1.1,6.2-2.8,10.1-4.9c3.5-1.9,7.3-4.1,11.5-6.7c6.7-4.1,13.9-8.9,21.4-14.2
		c12.1-8.6,24.6-18.5,35.4-28.5c3.6-3.3,6.9-6.6,10-9.8c0.6-0.7,1.6-0.7,2.2,0.1c13.1,15.3,55.4,54.2,89,66.9c2.4,0.9,5,0.5,6.9-1
		c20.8-15.5,41.5-32.6,49-41c0.6-0.7,1.5-0.7,2.1,0c10.5,12.3,55.9,48.4,96.9,58.8V304H711.8v-53.8c0-1.1,0.7-2,1.7-2.4
		C717.2,246.4,726.7,242.9,738.6,237"/>
	<line fill="none" stroke="#000000" stroke-width="3" stroke-miterlimit="10" x1="712" y1="249.3" x2="693.6" y2="303.8"/>
</g>
<g id="rad">
	<circle fill="none" stroke="#010202" stroke-width="3" stroke-miterlimit="10" cx="833.6" cy="183.2" r="109.2"/>
	<circle fill="none" stroke="#010202" stroke-width="3" stroke-miterlimit="10" cx="833.6" cy="183.2" r="62.1"/>
	<circle fill="none" stroke="#010202" stroke-width="3" stroke-miterlimit="10" cx="833.6" cy="183.2" r="42.1"/>
	<line fill="none" stroke="#010202" stroke-width="3" stroke-miterlimit="10" x1="833.6" y1="183.2" x2="805.4" y2="77.8"/>
	<line fill="none" stroke="#010202" stroke-width="3" stroke-miterlimit="10" x1="833.6" y1="183.2" x2="756.5" y2="105.9"/>
	<line fill="none" stroke="#010202" stroke-width="3" stroke-miterlimit="10" x1="833.6" y1="183.2" x2="728.2" y2="154.9"/>
	<line fill="none" stroke="#010202" stroke-width="3" stroke-miterlimit="10" x1="833.6" y1="183.2" x2="728.2" y2="211.3"/>
	<line fill="none" stroke="#010202" stroke-width="3" stroke-miterlimit="10" x1="833.6" y1="183.2" x2="756.4" y2="260.3"/>
	<line fill="none" stroke="#010202" stroke-width="3" stroke-miterlimit="10" x1="833.6" y1="183.2" x2="805.3" y2="288.5"/>
	<line fill="none" stroke="#010202" stroke-width="3" stroke-miterlimit="10" x1="833.6" y1="183.2" x2="861.7" y2="288.6"/>
	<line fill="none" stroke="#010202" stroke-width="3" stroke-miterlimit="10" x1="833.6" y1="183.2" x2="910.7" y2="260.4"/>
	<line fill="none" stroke="#010202" stroke-width="3" stroke-miterlimit="10" x1="833.6" y1="183.2" x2="939" y2="211.5"/>
	<line fill="none" stroke="#010202" stroke-width="3" stroke-miterlimit="10" x1="833.6" y1="183.2" x2="939" y2="154.9"/>
	<line fill="none" stroke="#010202" stroke-width="3" stroke-miterlimit="10" x1="833.6" y1="183.2" x2="910.8" y2="106.1"/>
	<line fill="none" stroke="#010202" stroke-width="3" stroke-miterlimit="10" x1="833.6" y1="183.2" x2="861.9" y2="77.8"/>
</g>
<g id="weg">
	<polyline fill="none" stroke="#000000" stroke-width="3" stroke-miterlimit="10" points="-37.3,342.8 1198.6,342.8 1198.6,342.8 	
		"/>
	<polyline fill="none" stroke="#000000" stroke-width="3" stroke-miterlimit="10" stroke-dasharray="12" points="1198.6,318.4 
		-37.3,318.4 -37.3,318.4 	"/>
	<line fill="none" stroke="#000000" stroke-width="3" stroke-miterlimit="10" x1="1198.6" y1="294" x2="-37.3" y2="294"/>
</g>
<g id="wolken_20_">
	<g id="wolken_8_">
		<g id="wolken_1_">
			<g id="wolken">
				<path fill="none" stroke="#000000" stroke-width="3" stroke-miterlimit="10" d="M-3767,55.9c-0.7,0-1.5,0.2-2.1,0.3
					c-0.2-5-4.2-8.9-9.2-8.9c-4,0-7.4,2.5-8.6,6.1c-0.8-0.2-1.6-0.4-2.4-0.4c-4.3,0-7.9,3.5-7.9,7.9s3.5,7.9,7.9,7.9h22.4
					c3.6,0,6.4-2.8,6.4-6.4S-3763.5,55.9-3767,55.9z"/>
				<path fill="none" stroke="#000000" stroke-width="3" stroke-miterlimit="10" d="M-3332.1,55.9c-0.7,0-1.5,0.2-2.1,0.3
					c-0.2-5-4.2-8.9-9.2-8.9c-4,0-7.4,2.5-8.6,6.1c-0.8-0.2-1.6-0.4-2.4-0.4c-4.3,0-7.9,3.5-7.9,7.9s3.5,7.9,7.9,7.9h22.4
					c3.6,0,6.4-2.8,6.4-6.4S-3328.6,55.9-3332.1,55.9z"/>
				<path fill="none" stroke="#000000" stroke-width="3" stroke-miterlimit="10" d="M-3481.1,37.5c-0.7,0-1.2,0.1-1.9,0.3
					c-0.2-4.3-3.7-7.7-8-7.7c-3.4,0-6.4,2.2-7.5,5.3c-0.7-0.2-1.4-0.3-2.1-0.3c-3.7,0-6.8,3.1-6.8,6.8s3.1,6.8,6.8,6.8h19.4
					c3.1,0,5.6-2.5,5.6-5.6S-3478,37.5-3481.1,37.5z"/>
				<path fill="none" stroke="#000000" stroke-width="3" stroke-miterlimit="10" d="M-3046.6,37.5c-0.7,0-1.2,0.1-1.9,0.3
					c-0.2-4.3-3.7-7.7-8-7.7c-3.4,0-6.4,2.2-7.5,5.3c-0.7-0.2-1.4-0.3-2.1-0.3c-3.7,0-6.8,3.1-6.8,6.8s3.1,6.8,6.8,6.8h19.4
					c3.1,0,5.6-2.5,5.6-5.6S-3043.6,37.5-3046.6,37.5z"/>
				<path fill="none" stroke="#000000" stroke-width="3" stroke-miterlimit="10" d="M-3590.4,77.3c-0.9,0-1.7,0.2-2.5,0.4
					c-0.2-5.9-5-10.7-11.1-10.7c-4.8,0-8.9,3-10.4,7.3c-0.9-0.3-2-0.5-2.9-0.5c-5.2,0-9.4,4.2-9.4,9.4s4.2,9.4,9.4,9.4h26.9
					c4.2,0,7.7-3.4,7.7-7.7C-3582.7,80.7-3586.1,77.3-3590.4,77.3z"/>
				<path fill="none" stroke="#000000" stroke-width="3" stroke-miterlimit="10" d="M-3204.8,77.3c-0.9,0-1.7,0.2-2.5,0.4
					c-0.2-5.9-5-10.7-11.1-10.7c-4.8,0-8.9,3-10.4,7.3c-0.9-0.3-2-0.5-2.9-0.5c-5.2,0-9.4,4.2-9.4,9.4s4.2,9.4,9.4,9.4h26.9
					c4.2,0,7.7-3.4,7.7-7.7C-3197.1,80.7-3200.5,77.3-3204.8,77.3z"/>
			</g>
			<path fill="none" stroke="#000000" stroke-width="3" stroke-miterlimit="10" d="M-2887.6,55.9c-0.7,0-1.5,0.2-2.1,0.3
				c-0.2-5-4.2-8.9-9.2-8.9c-4,0-7.4,2.5-8.6,6.1c-0.8-0.2-1.6-0.4-2.4-0.4c-4.3,0-7.9,3.5-7.9,7.9s3.5,7.9,7.9,7.9h22.4
				c3.6,0,6.4-2.8,6.4-6.4S-2884.1,55.9-2887.6,55.9z"/>
			<path fill="none" stroke="#000000" stroke-width="3" stroke-miterlimit="10" d="M-2634.2,37.5c-0.7,0-1.2,0.1-1.9,0.3
				c-0.2-4.3-3.7-7.7-8-7.7c-3.4,0-6.4,2.2-7.5,5.3c-0.7-0.2-1.4-0.3-2.1-0.3c-3.7,0-6.8,3.1-6.8,6.8s3.1,6.8,6.8,6.8h19.4
				c3.1,0,5.6-2.5,5.6-5.6S-2631.1,37.5-2634.2,37.5z"/>
			<path fill="none" stroke="#000000" stroke-width="3" stroke-miterlimit="10" d="M-2743.6,77.3c-0.9,0-1.7,0.2-2.5,0.4
				c-0.2-5.9-5-10.7-11.1-10.7c-4.8,0-8.9,3-10.4,7.3c-0.9-0.3-2-0.5-2.9-0.5c-5.2,0-9.4,4.2-9.4,9.4s4.2,9.4,9.4,9.4h26.9
				c4.2,0,7.7-3.4,7.7-7.7C-2735.8,80.7-2739.2,77.3-2743.6,77.3z"/>
		</g>
		<g id="wolken_2_">
			<g id="wolken_3_">
				<path fill="none" stroke="#000000" stroke-width="3" stroke-miterlimit="10" d="M-2495.5,55.9c-0.7,0-1.5,0.2-2.1,0.3
					c-0.2-5-4.2-8.9-9.2-8.9c-4,0-7.4,2.5-8.6,6.1c-0.8-0.2-1.6-0.4-2.4-0.4c-4.3,0-7.9,3.5-7.9,7.9s3.5,7.9,7.9,7.9h22.4
					c3.6,0,6.4-2.8,6.4-6.4S-2492,55.9-2495.5,55.9z"/>
				<path fill="none" stroke="#000000" stroke-width="3" stroke-miterlimit="10" d="M-2060.7,55.9c-0.7,0-1.5,0.2-2.1,0.3
					c-0.2-5-4.2-8.9-9.2-8.9c-4,0-7.4,2.5-8.6,6.1c-0.8-0.2-1.6-0.4-2.4-0.4c-4.3,0-7.9,3.5-7.9,7.9s3.5,7.9,7.9,7.9h22.4
					c3.6,0,6.4-2.8,6.4-6.4S-2057.1,55.9-2060.7,55.9z"/>
				<path fill="none" stroke="#000000" stroke-width="3" stroke-miterlimit="10" d="M-2209.6,37.5c-0.7,0-1.2,0.1-1.9,0.3
					c-0.2-4.3-3.7-7.7-8-7.7c-3.4,0-6.4,2.2-7.5,5.3c-0.7-0.2-1.4-0.3-2.1-0.3c-3.7,0-6.8,3.1-6.8,6.8s3.1,6.8,6.8,6.8h19.4
					c3.1,0,5.6-2.5,5.6-5.6S-2206.5,37.5-2209.6,37.5z"/>
				<path fill="none" stroke="#000000" stroke-width="3" stroke-miterlimit="10" d="M-1775.2,37.5c-0.7,0-1.2,0.1-1.9,0.3
					c-0.2-4.3-3.7-7.7-8-7.7c-3.4,0-6.4,2.2-7.5,5.3c-0.7-0.2-1.4-0.3-2.1-0.3c-3.7,0-6.8,3.1-6.8,6.8s3.1,6.8,6.8,6.8h19.4
					c3.1,0,5.6-2.5,5.6-5.6S-1772.2,37.5-1775.2,37.5z"/>
				<path fill="none" stroke="#000000" stroke-width="3" stroke-miterlimit="10" d="M-2318.9,77.3c-0.9,0-1.7,0.2-2.5,0.4
					c-0.2-5.9-5-10.7-11.1-10.7c-4.8,0-8.9,3-10.4,7.3c-0.9-0.3-2-0.5-2.9-0.5c-5.2,0-9.4,4.2-9.4,9.4s4.2,9.4,9.4,9.4h26.9
					c4.2,0,7.7-3.4,7.7-7.7C-2311.2,80.7-2314.6,77.3-2318.9,77.3z"/>
				<path fill="none" stroke="#000000" stroke-width="3" stroke-miterlimit="10" d="M-1933.4,77.3c-0.9,0-1.7,0.2-2.5,0.4
					c-0.2-5.9-5-10.7-11.1-10.7c-4.8,0-8.9,3-10.4,7.3c-0.9-0.3-2-0.5-2.9-0.5c-5.2,0-9.4,4.2-9.4,9.4s4.2,9.4,9.4,9.4h26.9
					c4.2,0,7.7-3.4,7.7-7.7C-1925.6,80.7-1929.1,77.3-1933.4,77.3z"/>
			</g>
			<path fill="none" stroke="#000000" stroke-width="3" stroke-miterlimit="10" d="M-1616.1,55.9c-0.7,0-1.5,0.2-2.1,0.3
				c-0.2-5-4.2-8.9-9.2-8.9c-4,0-7.4,2.5-8.6,6.1c-0.8-0.2-1.6-0.4-2.4-0.4c-4.3,0-7.9,3.5-7.9,7.9s3.5,7.9,7.9,7.9h22.4
				c3.6,0,6.4-2.8,6.4-6.4S-1612.6,55.9-1616.1,55.9z"/>
			<path fill="none" stroke="#000000" stroke-width="3" stroke-miterlimit="10" d="M-1362.8,37.5c-0.7,0-1.2,0.1-1.9,0.3
				c-0.2-4.3-3.7-7.7-8-7.7c-3.4,0-6.4,2.2-7.5,5.3c-0.7-0.2-1.4-0.3-2.1-0.3c-3.7,0-6.8,3.1-6.8,6.8s3.1,6.8,6.8,6.8h19.4
				c3.1,0,5.6-2.5,5.6-5.6S-1359.7,37.5-1362.8,37.5z"/>
			<path fill="none" stroke="#000000" stroke-width="3" stroke-miterlimit="10" d="M-1472.1,77.3c-0.9,0-1.7,0.2-2.5,0.4
				c-0.2-5.9-5-10.7-11.1-10.7c-4.8,0-8.9,3-10.4,7.3c-0.9-0.3-2-0.5-2.9-0.5c-5.2,0-9.4,4.2-9.4,9.4s4.2,9.4,9.4,9.4h26.9
				c4.2,0,7.7-3.4,7.7-7.7C-1464.4,80.7-1467.8,77.3-1472.1,77.3z"/>
		</g>
		<g id="wolken_6_">
			<g id="wolken_7_">
				<path fill="none" stroke="#000000" stroke-width="3" stroke-miterlimit="10" d="M-1216.8,55.9c-0.7,0-1.5,0.2-2.1,0.3
					c-0.2-5-4.2-8.9-9.2-8.9c-4,0-7.4,2.5-8.6,6.1c-0.8-0.2-1.6-0.4-2.4-0.4c-4.3,0-7.9,3.5-7.9,7.9s3.5,7.9,7.9,7.9h22.4
					c3.6,0,6.4-2.8,6.4-6.4S-1213.3,55.9-1216.8,55.9z"/>
				<path fill="none" stroke="#000000" stroke-width="3" stroke-miterlimit="10" d="M-782,55.9c-0.7,0-1.5,0.2-2.1,0.3
					c-0.2-5-4.2-8.9-9.2-8.9c-4,0-7.4,2.5-8.6,6.1c-0.8-0.2-1.6-0.4-2.4-0.4c-4.3,0-7.9,3.5-7.9,7.9s3.5,7.9,7.9,7.9h22.4
					c3.6,0,6.4-2.8,6.4-6.4S-778.4,55.9-782,55.9z"/>
				<path fill="none" stroke="#000000" stroke-width="3" stroke-miterlimit="10" d="M-930.9,37.5c-0.7,0-1.2,0.1-1.9,0.3
					c-0.2-4.3-3.7-7.7-8-7.7c-3.4,0-6.4,2.2-7.5,5.3c-0.7-0.2-1.4-0.3-2.1-0.3c-3.7,0-6.8,3.1-6.8,6.8s3.1,6.8,6.8,6.8h19.4
					c3.1,0,5.6-2.5,5.6-5.6S-927.8,37.5-930.9,37.5z"/>
				<path fill="none" stroke="#000000" stroke-width="3" stroke-miterlimit="10" d="M-496.5,37.5c-0.7,0-1.2,0.1-1.9,0.3
					c-0.2-4.3-3.7-7.7-8-7.7c-3.4,0-6.4,2.2-7.5,5.3c-0.7-0.2-1.4-0.3-2.1-0.3c-3.7,0-6.8,3.1-6.8,6.8s3.1,6.8,6.8,6.8h19.4
					c3.1,0,5.6-2.5,5.6-5.6S-493.5,37.5-496.5,37.5z"/>
				<path fill="none" stroke="#000000" stroke-width="3" stroke-miterlimit="10" d="M-1040.2,77.3c-0.9,0-1.7,0.2-2.5,0.4
					c-0.2-5.9-5-10.7-11.1-10.7c-4.8,0-8.9,3-10.4,7.3c-0.9-0.3-2-0.5-2.9-0.5c-5.2,0-9.4,4.2-9.4,9.4s4.2,9.4,9.4,9.4h26.9
					c4.2,0,7.7-3.4,7.7-7.7C-1032.5,80.7-1035.9,77.3-1040.2,77.3z"/>
				<path fill="none" stroke="#000000" stroke-width="3" stroke-miterlimit="10" d="M-654.7,77.3c-0.9,0-1.7,0.2-2.5,0.4
					c-0.2-5.9-5-10.7-11.1-10.7c-4.8,0-8.9,3-10.4,7.3c-0.9-0.3-2-0.5-2.9-0.5c-5.2,0-9.4,4.2-9.4,9.4s4.2,9.4,9.4,9.4h26.9
					c4.2,0,7.7-3.4,7.7-7.7C-646.9,80.7-650.4,77.3-654.7,77.3z"/>
			</g>
			<path fill="none" stroke="#000000" stroke-width="3" stroke-miterlimit="10" d="M-337.5,55.9c-0.7,0-1.5,0.2-2.1,0.3
				c-0.2-5-4.2-8.9-9.2-8.9c-4,0-7.4,2.5-8.6,6.1c-0.8-0.2-1.6-0.4-2.4-0.4c-4.3,0-7.9,3.5-7.9,7.9s3.5,7.9,7.9,7.9h22.4
				c3.6,0,6.4-2.8,6.4-6.4S-334,55.9-337.5,55.9z"/>
			<path fill="none" stroke="#000000" stroke-width="3" stroke-miterlimit="10" d="M-84.1,37.5c-0.7,0-1.2,0.1-1.9,0.3
				c-0.2-4.3-3.7-7.7-8-7.7c-3.4,0-6.4,2.2-7.5,5.3c-0.7-0.2-1.4-0.3-2.1-0.3c-3.7,0-6.8,3.1-6.8,6.8s3.1,6.8,6.8,6.8h19.4
				c3.1,0,5.6-2.5,5.6-5.6S-81,37.5-84.1,37.5z"/>
			<path fill="none" stroke="#000000" stroke-width="3" stroke-miterlimit="10" d="M-193.4,77.3c-0.9,0-1.7,0.2-2.5,0.4
				c-0.2-5.9-5-10.7-11.1-10.7c-4.8,0-8.9,3-10.4,7.3c-0.9-0.3-2-0.5-2.9-0.5c-5.2,0-9.4,4.2-9.4,9.4s4.2,9.4,9.4,9.4h26.9
				c4.2,0,7.7-3.4,7.7-7.7C-185.7,80.7-189.1,77.3-193.4,77.3z"/>
		</g>
		<g id="wolken_4_">
			<g id="wolken_5_">
				<path fill="none" stroke="#000000" stroke-width="3" stroke-miterlimit="10" d="M54.7,55.9c-0.7,0-1.5,0.2-2.1,0.3
					c-0.2-5-4.2-8.9-9.2-8.9c-4,0-7.4,2.5-8.6,6.1c-0.8-0.2-1.6-0.4-2.4-0.4c-4.3,0-7.9,3.5-7.9,7.9s3.5,7.9,7.9,7.9h22.4
					c3.6,0,6.4-2.8,6.4-6.4S58.2,55.9,54.7,55.9z"/>
				<path fill="none" stroke="#000000" stroke-width="3" stroke-miterlimit="10" d="M489.5,55.9c-0.7,0-1.5,0.2-2.1,0.3
					c-0.2-5-4.2-8.9-9.2-8.9c-4,0-7.4,2.5-8.6,6.1c-0.8-0.2-1.6-0.4-2.4-0.4c-4.3,0-7.9,3.5-7.9,7.9s3.5,7.9,7.9,7.9h22.4
					c3.6,0,6.4-2.8,6.4-6.4S493.1,55.9,489.5,55.9z"/>
				<path fill="none" stroke="#000000" stroke-width="3" stroke-miterlimit="10" d="M340.6,37.5c-0.7,0-1.2,0.1-1.9,0.3
					c-0.2-4.3-3.7-7.7-8-7.7c-3.4,0-6.4,2.2-7.5,5.3c-0.7-0.2-1.4-0.3-2.1-0.3c-3.7,0-6.8,3.1-6.8,6.8s3.1,6.8,6.8,6.8h19.4
					c3.1,0,5.6-2.5,5.6-5.6S343.7,37.5,340.6,37.5z"/>
				<path fill="none" stroke="#000000" stroke-width="3" stroke-miterlimit="10" d="M775,37.5c-0.7,0-1.2,0.1-1.9,0.3
					c-0.2-4.3-3.7-7.7-8-7.7c-3.4,0-6.4,2.2-7.5,5.3c-0.7-0.2-1.4-0.3-2.1-0.3c-3.7,0-6.8,3.1-6.8,6.8s3.1,6.8,6.8,6.8H775
					c3.1,0,5.6-2.5,5.6-5.6S778,37.5,775,37.5z"/>
				<path fill="none" stroke="#000000" stroke-width="3" stroke-miterlimit="10" d="M231.2,77.3c-0.9,0-1.7,0.2-2.5,0.4
					c-0.2-5.9-5-10.7-11.1-10.7c-4.8,0-8.9,3-10.4,7.3c-0.9-0.3-2-0.5-2.9-0.5c-5.2,0-9.4,4.2-9.4,9.4s4.2,9.4,9.4,9.4h26.9
					c4.2,0,7.7-3.4,7.7-7.7C239,80.7,235.6,77.3,231.2,77.3z"/>
				<path fill="none" stroke="#000000" stroke-width="3" stroke-miterlimit="10" d="M616.8,77.3c-0.9,0-1.7,0.2-2.5,0.4
					c-0.2-5.9-5-10.7-11.1-10.7c-4.8,0-8.9,3-10.4,7.3c-0.9-0.3-2-0.5-2.9-0.5c-5.2,0-9.4,4.2-9.4,9.4s4.2,9.4,9.4,9.4h26.9
					c4.2,0,7.7-3.4,7.7-7.7C624.5,80.7,621.1,77.3,616.8,77.3z"/>
			</g>
			<path fill="none" stroke="#000000" stroke-width="3" stroke-miterlimit="10" d="M934,55.9c-0.7,0-1.5,0.2-2.1,0.3
				c-0.2-5-4.2-8.9-9.2-8.9c-4,0-7.4,2.5-8.6,6.1c-0.8-0.2-1.6-0.4-2.4-0.4c-4.3,0-7.9,3.5-7.9,7.9s3.5,7.9,7.9,7.9h22.4
				c3.6,0,6.4-2.8,6.4-6.4S937.5,55.9,934,55.9z"/>
			<path fill="none" stroke="#000000" stroke-width="3" stroke-miterlimit="10" d="M1187.4,37.5c-0.7,0-1.2,0.1-1.9,0.3
				c-0.2-4.3-3.7-7.7-8-7.7c-3.4,0-6.4,2.2-7.5,5.3c-0.7-0.2-1.4-0.3-2.1-0.3c-3.7,0-6.8,3.1-6.8,6.8s3.1,6.8,6.8,6.8h19.4
				c3.1,0,5.6-2.5,5.6-5.6S1190.5,37.5,1187.4,37.5z"/>
			<path fill="none" stroke="#000000" stroke-width="3" stroke-miterlimit="10" d="M1078.1,77.3c-0.9,0-1.7,0.2-2.5,0.4
				c-0.2-5.9-5-10.7-11.1-10.7c-4.8,0-8.9,3-10.4,7.3c-0.9-0.3-2-0.5-2.9-0.5c-5.2,0-9.4,4.2-9.4,9.4s4.2,9.4,9.4,9.4h26.9
				c4.2,0,7.7-3.4,7.7-7.7C1085.8,80.7,1082.4,77.3,1078.1,77.3z"/>
		</g>
	</g>
	<g id="wolken_9_">
		<g id="wolken_16_">
			<g id="wolken_17_">
				<path fill="none" stroke="#000000" stroke-width="3" stroke-miterlimit="10" d="M-3767,55.9c-0.7,0-1.5,0.2-2.1,0.3
					c-0.2-5-4.2-8.9-9.2-8.9c-4,0-7.4,2.5-8.6,6.1c-0.8-0.2-1.6-0.4-2.4-0.4c-4.3,0-7.9,3.5-7.9,7.9s3.5,7.9,7.9,7.9h22.4
					c3.6,0,6.4-2.8,6.4-6.4S-3763.5,55.9-3767,55.9z"/>
				<path fill="none" stroke="#000000" stroke-width="3" stroke-miterlimit="10" d="M-3332.1,55.9c-0.7,0-1.5,0.2-2.1,0.3
					c-0.2-5-4.2-8.9-9.2-8.9c-4,0-7.4,2.5-8.6,6.1c-0.8-0.2-1.6-0.4-2.4-0.4c-4.3,0-7.9,3.5-7.9,7.9s3.5,7.9,7.9,7.9h22.4
					c3.6,0,6.4-2.8,6.4-6.4S-3328.6,55.9-3332.1,55.9z"/>
				<path fill="none" stroke="#000000" stroke-width="3" stroke-miterlimit="10" d="M-3481.1,37.5c-0.7,0-1.2,0.1-1.9,0.3
					c-0.2-4.3-3.7-7.7-8-7.7c-3.4,0-6.4,2.2-7.5,5.3c-0.7-0.2-1.4-0.3-2.1-0.3c-3.7,0-6.8,3.1-6.8,6.8s3.1,6.8,6.8,6.8h19.4
					c3.1,0,5.6-2.5,5.6-5.6S-3478,37.5-3481.1,37.5z"/>
				<path fill="none" stroke="#000000" stroke-width="3" stroke-miterlimit="10" d="M-3046.6,37.5c-0.7,0-1.2,0.1-1.9,0.3
					c-0.2-4.3-3.7-7.7-8-7.7c-3.4,0-6.4,2.2-7.5,5.3c-0.7-0.2-1.4-0.3-2.1-0.3c-3.7,0-6.8,3.1-6.8,6.8s3.1,6.8,6.8,6.8h19.4
					c3.1,0,5.6-2.5,5.6-5.6S-3043.6,37.5-3046.6,37.5z"/>
				<path fill="none" stroke="#000000" stroke-width="3" stroke-miterlimit="10" d="M-3590.4,77.3c-0.9,0-1.7,0.2-2.5,0.4
					c-0.2-5.9-5-10.7-11.1-10.7c-4.8,0-8.9,3-10.4,7.3c-0.9-0.3-2-0.5-2.9-0.5c-5.2,0-9.4,4.2-9.4,9.4s4.2,9.4,9.4,9.4h26.9
					c4.2,0,7.7-3.4,7.7-7.7C-3582.7,80.7-3586.1,77.3-3590.4,77.3z"/>
				<path fill="none" stroke="#000000" stroke-width="3" stroke-miterlimit="10" d="M-3204.8,77.3c-0.9,0-1.7,0.2-2.5,0.4
					c-0.2-5.9-5-10.7-11.1-10.7c-4.8,0-8.9,3-10.4,7.3c-0.9-0.3-2-0.5-2.9-0.5c-5.2,0-9.4,4.2-9.4,9.4s4.2,9.4,9.4,9.4h26.9
					c4.2,0,7.7-3.4,7.7-7.7C-3197.1,80.7-3200.5,77.3-3204.8,77.3z"/>
			</g>
			<path fill="none" stroke="#000000" stroke-width="3" stroke-miterlimit="10" d="M-2887.6,55.9c-0.7,0-1.5,0.2-2.1,0.3
				c-0.2-5-4.2-8.9-9.2-8.9c-4,0-7.4,2.5-8.6,6.1c-0.8-0.2-1.6-0.4-2.4-0.4c-4.3,0-7.9,3.5-7.9,7.9s3.5,7.9,7.9,7.9h22.4
				c3.6,0,6.4-2.8,6.4-6.4S-2884.1,55.9-2887.6,55.9z"/>
			<path fill="none" stroke="#000000" stroke-width="3" stroke-miterlimit="10" d="M-2634.2,37.5c-0.7,0-1.2,0.1-1.9,0.3
				c-0.2-4.3-3.7-7.7-8-7.7c-3.4,0-6.4,2.2-7.5,5.3c-0.7-0.2-1.4-0.3-2.1-0.3c-3.7,0-6.8,3.1-6.8,6.8s3.1,6.8,6.8,6.8h19.4
				c3.1,0,5.6-2.5,5.6-5.6S-2631.1,37.5-2634.2,37.5z"/>
			<path fill="none" stroke="#000000" stroke-width="3" stroke-miterlimit="10" d="M-2743.6,77.3c-0.9,0-1.7,0.2-2.5,0.4
				c-0.2-5.9-5-10.7-11.1-10.7c-4.8,0-8.9,3-10.4,7.3c-0.9-0.3-2-0.5-2.9-0.5c-5.2,0-9.4,4.2-9.4,9.4s4.2,9.4,9.4,9.4h26.9
				c4.2,0,7.7-3.4,7.7-7.7C-2735.8,80.7-2739.2,77.3-2743.6,77.3z"/>
		</g>
		<g id="wolken_18_">
			<g id="wolken_19_">
				<path fill="none" stroke="#000000" stroke-width="3" stroke-miterlimit="10" d="M-5047.1,55.9c-0.7,0-1.5,0.2-2.1,0.3
					c-0.2-5-4.2-8.9-9.2-8.9c-4,0-7.4,2.5-8.6,6.1c-0.8-0.2-1.6-0.4-2.4-0.4c-4.3,0-7.9,3.5-7.9,7.9s3.5,7.9,7.9,7.9h22.4
					c3.6,0,6.4-2.8,6.4-6.4S-5043.6,55.9-5047.1,55.9z"/>
				<path fill="none" stroke="#000000" stroke-width="3" stroke-miterlimit="10" d="M-4612.2,55.9c-0.7,0-1.5,0.2-2.1,0.3
					c-0.2-5-4.2-8.9-9.2-8.9c-4,0-7.4,2.5-8.6,6.1c-0.8-0.2-1.6-0.4-2.4-0.4c-4.3,0-7.9,3.5-7.9,7.9s3.5,7.9,7.9,7.9h22.4
					c3.6,0,6.4-2.8,6.4-6.4S-4608.6,55.9-4612.2,55.9z"/>
				<path fill="none" stroke="#000000" stroke-width="3" stroke-miterlimit="10" d="M-4761.1,37.5c-0.7,0-1.2,0.1-1.9,0.3
					c-0.2-4.3-3.7-7.7-8-7.7c-3.4,0-6.4,2.2-7.5,5.3c-0.7-0.2-1.4-0.3-2.1-0.3c-3.7,0-6.8,3.1-6.8,6.8s3.1,6.8,6.8,6.8h19.4
					c3.1,0,5.6-2.5,5.6-5.6S-4758.1,37.5-4761.1,37.5z"/>
				<path fill="none" stroke="#000000" stroke-width="3" stroke-miterlimit="10" d="M-4326.7,37.5c-0.7,0-1.2,0.1-1.9,0.3
					c-0.2-4.3-3.7-7.7-8-7.7c-3.4,0-6.4,2.2-7.5,5.3c-0.7-0.2-1.4-0.3-2.1-0.3c-3.7,0-6.8,3.1-6.8,6.8s3.1,6.8,6.8,6.8h19.4
					c3.1,0,5.6-2.5,5.6-5.6S-4323.7,37.5-4326.7,37.5z"/>
				<path fill="none" stroke="#000000" stroke-width="3" stroke-miterlimit="10" d="M-4870.5,77.3c-0.9,0-1.7,0.2-2.5,0.4
					c-0.2-5.9-5-10.7-11.1-10.7c-4.8,0-8.9,3-10.4,7.3c-0.9-0.3-2-0.5-2.9-0.5c-5.2,0-9.4,4.2-9.4,9.4s4.2,9.4,9.4,9.4h26.9
					c4.2,0,7.7-3.4,7.7-7.7C-4862.7,80.7-4866.2,77.3-4870.5,77.3z"/>
				<path fill="none" stroke="#000000" stroke-width="3" stroke-miterlimit="10" d="M-4484.9,77.3c-0.9,0-1.7,0.2-2.5,0.4
					c-0.2-5.9-5-10.7-11.1-10.7c-4.8,0-8.9,3-10.4,7.3c-0.9-0.3-2-0.5-2.9-0.5c-5.2,0-9.4,4.2-9.4,9.4s4.2,9.4,9.4,9.4h26.9
					c4.2,0,7.7-3.4,7.7-7.7C-4477.2,80.7-4480.6,77.3-4484.9,77.3z"/>
			</g>
			<path fill="none" stroke="#000000" stroke-width="3" stroke-miterlimit="10" d="M-4167.7,55.9c-0.7,0-1.5,0.2-2.1,0.3
				c-0.2-5-4.2-8.9-9.2-8.9c-4,0-7.4,2.5-8.6,6.1c-0.8-0.2-1.6-0.4-2.4-0.4c-4.3,0-7.9,3.5-7.9,7.9s3.5,7.9,7.9,7.9h22.4
				c3.6,0,6.4-2.8,6.4-6.4S-4164.2,55.9-4167.7,55.9z"/>
			<path fill="none" stroke="#000000" stroke-width="3" stroke-miterlimit="10" d="M-3914.3,37.5c-0.7,0-1.2,0.1-1.9,0.3
				c-0.2-4.3-3.7-7.7-8-7.7c-3.4,0-6.4,2.2-7.5,5.3c-0.7-0.2-1.4-0.3-2.1-0.3c-3.7,0-6.8,3.1-6.8,6.8s3.1,6.8,6.8,6.8h19.4
				c3.1,0,5.6-2.5,5.6-5.6S-3911.2,37.5-3914.3,37.5z"/>
			<path fill="none" stroke="#000000" stroke-width="3" stroke-miterlimit="10" d="M-4023.6,77.3c-0.9,0-1.7,0.2-2.5,0.4
				c-0.2-5.9-5-10.7-11.1-10.7c-4.8,0-8.9,3-10.4,7.3c-0.9-0.3-2-0.5-2.9-0.5c-5.2,0-9.4,4.2-9.4,9.4s4.2,9.4,9.4,9.4h26.9
				c4.2,0,7.7-3.4,7.7-7.7C-4015.9,80.7-4019.3,77.3-4023.6,77.3z"/>
		</g>
		<g id="wolken_14_">
			<g id="wolken_15_">
				<path fill="none" stroke="#000000" stroke-width="3" stroke-miterlimit="10" d="M-2495.5,55.9c-0.7,0-1.5,0.2-2.1,0.3
					c-0.2-5-4.2-8.9-9.2-8.9c-4,0-7.4,2.5-8.6,6.1c-0.8-0.2-1.6-0.4-2.4-0.4c-4.3,0-7.9,3.5-7.9,7.9s3.5,7.9,7.9,7.9h22.4
					c3.6,0,6.4-2.8,6.4-6.4S-2492,55.9-2495.5,55.9z"/>
				<path fill="none" stroke="#000000" stroke-width="3" stroke-miterlimit="10" d="M-2060.7,55.9c-0.7,0-1.5,0.2-2.1,0.3
					c-0.2-5-4.2-8.9-9.2-8.9c-4,0-7.4,2.5-8.6,6.1c-0.8-0.2-1.6-0.4-2.4-0.4c-4.3,0-7.9,3.5-7.9,7.9s3.5,7.9,7.9,7.9h22.4
					c3.6,0,6.4-2.8,6.4-6.4S-2057.1,55.9-2060.7,55.9z"/>
				<path fill="none" stroke="#000000" stroke-width="3" stroke-miterlimit="10" d="M-2209.6,37.5c-0.7,0-1.2,0.1-1.9,0.3
					c-0.2-4.3-3.7-7.7-8-7.7c-3.4,0-6.4,2.2-7.5,5.3c-0.7-0.2-1.4-0.3-2.1-0.3c-3.7,0-6.8,3.1-6.8,6.8s3.1,6.8,6.8,6.8h19.4
					c3.1,0,5.6-2.5,5.6-5.6S-2206.5,37.5-2209.6,37.5z"/>
				<path fill="none" stroke="#000000" stroke-width="3" stroke-miterlimit="10" d="M-1775.2,37.5c-0.7,0-1.2,0.1-1.9,0.3
					c-0.2-4.3-3.7-7.7-8-7.7c-3.4,0-6.4,2.2-7.5,5.3c-0.7-0.2-1.4-0.3-2.1-0.3c-3.7,0-6.8,3.1-6.8,6.8s3.1,6.8,6.8,6.8h19.4
					c3.1,0,5.6-2.5,5.6-5.6S-1772.2,37.5-1775.2,37.5z"/>
				<path fill="none" stroke="#000000" stroke-width="3" stroke-miterlimit="10" d="M-2318.9,77.3c-0.9,0-1.7,0.2-2.5,0.4
					c-0.2-5.9-5-10.7-11.1-10.7c-4.8,0-8.9,3-10.4,7.3c-0.9-0.3-2-0.5-2.9-0.5c-5.2,0-9.4,4.2-9.4,9.4s4.2,9.4,9.4,9.4h26.9
					c4.2,0,7.7-3.4,7.7-7.7C-2311.2,80.7-2314.6,77.3-2318.9,77.3z"/>
				<path fill="none" stroke="#000000" stroke-width="3" stroke-miterlimit="10" d="M-1933.4,77.3c-0.9,0-1.7,0.2-2.5,0.4
					c-0.2-5.9-5-10.7-11.1-10.7c-4.8,0-8.9,3-10.4,7.3c-0.9-0.3-2-0.5-2.9-0.5c-5.2,0-9.4,4.2-9.4,9.4s4.2,9.4,9.4,9.4h26.9
					c4.2,0,7.7-3.4,7.7-7.7C-1925.6,80.7-1929.1,77.3-1933.4,77.3z"/>
			</g>
			<path fill="none" stroke="#000000" stroke-width="3" stroke-miterlimit="10" d="M-1616.1,55.9c-0.7,0-1.5,0.2-2.1,0.3
				c-0.2-5-4.2-8.9-9.2-8.9c-4,0-7.4,2.5-8.6,6.1c-0.8-0.2-1.6-0.4-2.4-0.4c-4.3,0-7.9,3.5-7.9,7.9s3.5,7.9,7.9,7.9h22.4
				c3.6,0,6.4-2.8,6.4-6.4S-1612.6,55.9-1616.1,55.9z"/>
			<path fill="none" stroke="#000000" stroke-width="3" stroke-miterlimit="10" d="M-1362.8,37.5c-0.7,0-1.2,0.1-1.9,0.3
				c-0.2-4.3-3.7-7.7-8-7.7c-3.4,0-6.4,2.2-7.5,5.3c-0.7-0.2-1.4-0.3-2.1-0.3c-3.7,0-6.8,3.1-6.8,6.8s3.1,6.8,6.8,6.8h19.4
				c3.1,0,5.6-2.5,5.6-5.6S-1359.7,37.5-1362.8,37.5z"/>
			<path fill="none" stroke="#000000" stroke-width="3" stroke-miterlimit="10" d="M-1472.1,77.3c-0.9,0-1.7,0.2-2.5,0.4
				c-0.2-5.9-5-10.7-11.1-10.7c-4.8,0-8.9,3-10.4,7.3c-0.9-0.3-2-0.5-2.9-0.5c-5.2,0-9.4,4.2-9.4,9.4s4.2,9.4,9.4,9.4h26.9
				c4.2,0,7.7-3.4,7.7-7.7C-1464.4,80.7-1467.8,77.3-1472.1,77.3z"/>
		</g>
		<g id="wolken_12_">
			<g id="wolken_13_">
				<path fill="none" stroke="#000000" stroke-width="3" stroke-miterlimit="10" d="M-1216.8,55.9c-0.7,0-1.5,0.2-2.1,0.3
					c-0.2-5-4.2-8.9-9.2-8.9c-4,0-7.4,2.5-8.6,6.1c-0.8-0.2-1.6-0.4-2.4-0.4c-4.3,0-7.9,3.5-7.9,7.9s3.5,7.9,7.9,7.9h22.4
					c3.6,0,6.4-2.8,6.4-6.4S-1213.3,55.9-1216.8,55.9z"/>
				<path fill="none" stroke="#000000" stroke-width="3" stroke-miterlimit="10" d="M-782,55.9c-0.7,0-1.5,0.2-2.1,0.3
					c-0.2-5-4.2-8.9-9.2-8.9c-4,0-7.4,2.5-8.6,6.1c-0.8-0.2-1.6-0.4-2.4-0.4c-4.3,0-7.9,3.5-7.9,7.9s3.5,7.9,7.9,7.9h22.4
					c3.6,0,6.4-2.8,6.4-6.4S-778.4,55.9-782,55.9z"/>
				<path fill="none" stroke="#000000" stroke-width="3" stroke-miterlimit="10" d="M-930.9,37.5c-0.7,0-1.2,0.1-1.9,0.3
					c-0.2-4.3-3.7-7.7-8-7.7c-3.4,0-6.4,2.2-7.5,5.3c-0.7-0.2-1.4-0.3-2.1-0.3c-3.7,0-6.8,3.1-6.8,6.8s3.1,6.8,6.8,6.8h19.4
					c3.1,0,5.6-2.5,5.6-5.6S-927.8,37.5-930.9,37.5z"/>
				<path fill="none" stroke="#000000" stroke-width="3" stroke-miterlimit="10" d="M-496.5,37.5c-0.7,0-1.2,0.1-1.9,0.3
					c-0.2-4.3-3.7-7.7-8-7.7c-3.4,0-6.4,2.2-7.5,5.3c-0.7-0.2-1.4-0.3-2.1-0.3c-3.7,0-6.8,3.1-6.8,6.8s3.1,6.8,6.8,6.8h19.4
					c3.1,0,5.6-2.5,5.6-5.6S-493.5,37.5-496.5,37.5z"/>
				<path fill="none" stroke="#000000" stroke-width="3" stroke-miterlimit="10" d="M-1040.2,77.3c-0.9,0-1.7,0.2-2.5,0.4
					c-0.2-5.9-5-10.7-11.1-10.7c-4.8,0-8.9,3-10.4,7.3c-0.9-0.3-2-0.5-2.9-0.5c-5.2,0-9.4,4.2-9.4,9.4s4.2,9.4,9.4,9.4h26.9
					c4.2,0,7.7-3.4,7.7-7.7C-1032.5,80.7-1035.9,77.3-1040.2,77.3z"/>
				<path fill="none" stroke="#000000" stroke-width="3" stroke-miterlimit="10" d="M-654.7,77.3c-0.9,0-1.7,0.2-2.5,0.4
					c-0.2-5.9-5-10.7-11.1-10.7c-4.8,0-8.9,3-10.4,7.3c-0.9-0.3-2-0.5-2.9-0.5c-5.2,0-9.4,4.2-9.4,9.4s4.2,9.4,9.4,9.4h26.9
					c4.2,0,7.7-3.4,7.7-7.7C-646.9,80.7-650.4,77.3-654.7,77.3z"/>
			</g>
			<path fill="none" stroke="#000000" stroke-width="3" stroke-miterlimit="10" d="M-337.5,55.9c-0.7,0-1.5,0.2-2.1,0.3
				c-0.2-5-4.2-8.9-9.2-8.9c-4,0-7.4,2.5-8.6,6.1c-0.8-0.2-1.6-0.4-2.4-0.4c-4.3,0-7.9,3.5-7.9,7.9s3.5,7.9,7.9,7.9h22.4
				c3.6,0,6.4-2.8,6.4-6.4S-334,55.9-337.5,55.9z"/>
			<path fill="none" stroke="#000000" stroke-width="3" stroke-miterlimit="10" d="M-84.1,37.5c-0.7,0-1.2,0.1-1.9,0.3
				c-0.2-4.3-3.7-7.7-8-7.7c-3.4,0-6.4,2.2-7.5,5.3c-0.7-0.2-1.4-0.3-2.1-0.3c-3.7,0-6.8,3.1-6.8,6.8s3.1,6.8,6.8,6.8h19.4
				c3.1,0,5.6-2.5,5.6-5.6S-81,37.5-84.1,37.5z"/>
			<path fill="none" stroke="#000000" stroke-width="3" stroke-miterlimit="10" d="M-193.4,77.3c-0.9,0-1.7,0.2-2.5,0.4
				c-0.2-5.9-5-10.7-11.1-10.7c-4.8,0-8.9,3-10.4,7.3c-0.9-0.3-2-0.5-2.9-0.5c-5.2,0-9.4,4.2-9.4,9.4s4.2,9.4,9.4,9.4h26.9
				c4.2,0,7.7-3.4,7.7-7.7C-185.7,80.7-189.1,77.3-193.4,77.3z"/>
		</g>
		<g id="wolken_10_">
			<g id="wolken_11_">
				<path fill="none" stroke="#000000" stroke-width="3" stroke-miterlimit="10" d="M54.7,55.9c-0.7,0-1.5,0.2-2.1,0.3
					c-0.2-5-4.2-8.9-9.2-8.9c-4,0-7.4,2.5-8.6,6.1c-0.8-0.2-1.6-0.4-2.4-0.4c-4.3,0-7.9,3.5-7.9,7.9s3.5,7.9,7.9,7.9h22.4
					c3.6,0,6.4-2.8,6.4-6.4S58.2,55.9,54.7,55.9z"/>
				<path fill="none" stroke="#000000" stroke-width="3" stroke-miterlimit="10" d="M489.5,55.9c-0.7,0-1.5,0.2-2.1,0.3
					c-0.2-5-4.2-8.9-9.2-8.9c-4,0-7.4,2.5-8.6,6.1c-0.8-0.2-1.6-0.4-2.4-0.4c-4.3,0-7.9,3.5-7.9,7.9s3.5,7.9,7.9,7.9h22.4
					c3.6,0,6.4-2.8,6.4-6.4S493.1,55.9,489.5,55.9z"/>
				<path fill="none" stroke="#000000" stroke-width="3" stroke-miterlimit="10" d="M340.6,37.5c-0.7,0-1.2,0.1-1.9,0.3
					c-0.2-4.3-3.7-7.7-8-7.7c-3.4,0-6.4,2.2-7.5,5.3c-0.7-0.2-1.4-0.3-2.1-0.3c-3.7,0-6.8,3.1-6.8,6.8s3.1,6.8,6.8,6.8h19.4
					c3.1,0,5.6-2.5,5.6-5.6S343.7,37.5,340.6,37.5z"/>
				<path fill="none" stroke="#000000" stroke-width="3" stroke-miterlimit="10" d="M775,37.5c-0.7,0-1.2,0.1-1.9,0.3
					c-0.2-4.3-3.7-7.7-8-7.7c-3.4,0-6.4,2.2-7.5,5.3c-0.7-0.2-1.4-0.3-2.1-0.3c-3.7,0-6.8,3.1-6.8,6.8s3.1,6.8,6.8,6.8H775
					c3.1,0,5.6-2.5,5.6-5.6S778,37.5,775,37.5z"/>
				<path fill="none" stroke="#000000" stroke-width="3" stroke-miterlimit="10" d="M231.2,77.3c-0.9,0-1.7,0.2-2.5,0.4
					c-0.2-5.9-5-10.7-11.1-10.7c-4.8,0-8.9,3-10.4,7.3c-0.9-0.3-2-0.5-2.9-0.5c-5.2,0-9.4,4.2-9.4,9.4s4.2,9.4,9.4,9.4h26.9
					c4.2,0,7.7-3.4,7.7-7.7C239,80.7,235.6,77.3,231.2,77.3z"/>
				<path fill="none" stroke="#000000" stroke-width="3" stroke-miterlimit="10" d="M616.8,77.3c-0.9,0-1.7,0.2-2.5,0.4
					c-0.2-5.9-5-10.7-11.1-10.7c-4.8,0-8.9,3-10.4,7.3c-0.9-0.3-2-0.5-2.9-0.5c-5.2,0-9.4,4.2-9.4,9.4s4.2,9.4,9.4,9.4h26.9
					c4.2,0,7.7-3.4,7.7-7.7C624.5,80.7,621.1,77.3,616.8,77.3z"/>
			</g>
			<path fill="none" stroke="#000000" stroke-width="3" stroke-miterlimit="10" d="M934,55.9c-0.7,0-1.5,0.2-2.1,0.3
				c-0.2-5-4.2-8.9-9.2-8.9c-4,0-7.4,2.5-8.6,6.1c-0.8-0.2-1.6-0.4-2.4-0.4c-4.3,0-7.9,3.5-7.9,7.9s3.5,7.9,7.9,7.9h22.4
				c3.6,0,6.4-2.8,6.4-6.4S937.5,55.9,934,55.9z"/>
			<path fill="none" stroke="#000000" stroke-width="3" stroke-miterlimit="10" d="M1187.4,37.5c-0.7,0-1.2,0.1-1.9,0.3
				c-0.2-4.3-3.7-7.7-8-7.7c-3.4,0-6.4,2.2-7.5,5.3c-0.7-0.2-1.4-0.3-2.1-0.3c-3.7,0-6.8,3.1-6.8,6.8s3.1,6.8,6.8,6.8h19.4
				c3.1,0,5.6-2.5,5.6-5.6S1190.5,37.5,1187.4,37.5z"/>
			<path fill="none" stroke="#000000" stroke-width="3" stroke-miterlimit="10" d="M1078.1,77.3c-0.9,0-1.7,0.2-2.5,0.4
				c-0.2-5.9-5-10.7-11.1-10.7c-4.8,0-8.9,3-10.4,7.3c-0.9-0.3-2-0.5-2.9-0.5c-5.2,0-9.4,4.2-9.4,9.4s4.2,9.4,9.4,9.4h26.9
				c4.2,0,7.7-3.4,7.7-7.7C1085.8,80.7,1082.4,77.3,1078.1,77.3z"/>
		</g>
	</g>
</g>
<g id="bus">
	<path fill="none" stroke="#000000" stroke-width="3" stroke-miterlimit="10" d="M403.4,287.6H227.7H169c-2.4,0-4.5-2-4.5-4.5l0,0
		c0-2.4,2-4.5,4.5-4.5H223h186h20.9c2.4,0,4.5,2,4.5,4.5l0,0c0,2.4-2,4.5-4.5,4.5H403.4z"/>
	<line fill="none" stroke="#000000" stroke-width="3" stroke-miterlimit="10" x1="430" y1="274.9" x2="430" y2="278.7"/>
	<line fill="none" stroke="#000000" stroke-width="3" stroke-miterlimit="10" x1="430" y1="263.8" x2="430" y2="266.7"/>
	<path fill="none" stroke="#000000" stroke-width="3" stroke-miterlimit="10" d="M169.3,267.1v-86.1c0-5.2,4.3-9.5,9.5-9.5h231.3
		c5.2,0,9.5,4.3,9.5,9.5l8.2,50.1c1.4,8.3,2,16.7,2,25.1v3.7"/>
	<line fill="none" stroke="#000000" stroke-width="3" stroke-miterlimit="10" x1="169.3" y1="278.7" x2="169.3" y2="274.8"/>
	<path fill="none" stroke="#000000" stroke-width="3" stroke-miterlimit="10" d="M429.8,263.4h-4.2c-1.3,0-2.3-1.1-2.3-2.3l0,0
		c0-1.3,1.1-2.3,2.3-2.3h4.2c1.3,0,2.3,1.1,2.3,2.3l0,0C432.1,262.4,431,263.4,429.8,263.4z"/>
	<path fill="none" stroke="#000000" stroke-width="3" stroke-miterlimit="10" d="M427.9,231.2l-7.4-45.4H169.3V236h259.3
		C428.4,234.4,428.2,232.8,427.9,231.2z"/>
	<path fill="none" stroke="#000000" stroke-width="3" stroke-miterlimit="10" d="M169.3,248.5h260.4c-0.1-2.2-0.2-4.4-0.5-6.5h-260
		V248.5z"/>
	<path fill="none" stroke="#000000" stroke-width="3" stroke-miterlimit="10" d="M430,274.7H423c-2,0-3.7-1.7-3.7-3.7l0,0
		c0-2,1.7-3.7,3.7-3.7h6.9c2,0,3.7,1.7,3.7,3.7l0,0C433.7,273,432,274.7,430,274.7z"/>
	<path fill="none" stroke="#000000" stroke-width="3" stroke-miterlimit="10" d="M176.8,274.7h-6.9c-2,0-3.7-1.7-3.7-3.7l0,0
		c0-2,1.7-3.7,3.7-3.7h6.9c2,0,3.7,1.7,3.7,3.7l0,0C180.5,273,178.8,274.7,176.8,274.7z"/>
	<path fill="none" stroke="#000000" stroke-width="3" stroke-miterlimit="10" d="M206.8,231.7h-28.3c-2.8,0-5.1-2.3-5.1-5.1v-31.4
		c0-2.8,2.3-5.1,5.1-5.1h28.3c2.8,0,5.1,2.3,5.1,5.1v31.4C211.8,229.4,209.5,231.7,206.8,231.7z"/>
	<path fill="none" stroke="#000000" stroke-width="3" stroke-miterlimit="10" d="M250.9,231.7h-28.3c-2.8,0-5.1-2.3-5.1-5.1v-31.4
		c0-2.8,2.3-5.1,5.1-5.1h28.3c2.8,0,5.1,2.3,5.1,5.1v31.4C256.1,229.4,253.7,231.7,250.9,231.7z"/>
	<path fill="none" stroke="#000000" stroke-width="3" stroke-miterlimit="10" d="M296.2,231.7h-28.3c-2.8,0-5.1-2.3-5.1-5.1v-31.4
		c0-2.8,2.3-5.1,5.1-5.1h28.3c2.8,0,5.1,2.3,5.1,5.1v31.4C301.3,229.4,299,231.7,296.2,231.7z"/>
	<path fill="none" stroke="#000000" stroke-width="3" stroke-miterlimit="10" d="M341.1,231.7h-28.3c-2.8,0-5.1-2.3-5.1-5.1v-31.4
		c0-2.8,2.3-5.1,5.1-5.1h28.3c2.8,0,5.1,2.3,5.1,5.1v31.4C346.2,229.4,343.9,231.7,341.1,231.7z"/>
	<path fill="none" stroke="#000000" stroke-width="3" stroke-miterlimit="10" d="M386,231.7h-28.3c-2.8,0-5.1-2.3-5.1-5.1v-31.4
		c0-2.8,2.3-5.1,5.1-5.1H386c2.8,0,5.1,2.3,5.1,5.1v31.4C391.1,229.4,388.8,231.7,386,231.7z"/>
	<path fill="none" stroke="#000000" stroke-width="3" stroke-miterlimit="10" d="M397.4,193.1v35.6c0,1.6,1.3,3,3,3H428
		c0-0.2-0.1-0.3-0.1-0.5l-6.7-41.1h-20.7C398.8,190.1,397.4,191.5,397.4,193.1z"/>
	<g id="achterwiel">
		<path id="kap" fill="none" stroke="#000000" stroke-width="3" stroke-miterlimit="10" d="M225.7,286.8
			c-1.4-10.2-10.1-18.1-20.7-18.1c-10.6,0-19.3,7.8-20.7,18.1h-2.2v2.8h2h3.1h0.5h38h0.2h1.8v-2.8H225.7z"/>
		<circle fill="none" stroke="#000000" stroke-width="3" stroke-miterlimit="10" cx="205.1" cy="290.4" r="17.2"/>
		<circle fill="none" stroke="#000000" stroke-width="3" stroke-miterlimit="10" cx="205.1" cy="290.4" r="10.2"/>
	</g>
	<g id="voorwiel">
		<path fill="none" stroke="#000000" stroke-width="3" stroke-miterlimit="10" d="M411.8,286.8c-1.4-10.2-10.1-18.1-20.7-18.1
			c-10.6,0-19.3,7.8-20.7,18.1h-2.2v2.8h2h2.4h1.4h37.8h0.2h1.8v-2.8H411.8z"/>
		<circle fill="none" stroke="#000000" stroke-width="3" stroke-miterlimit="10" cx="391.2" cy="290.4" r="17.2"/>
		<circle fill="none" stroke="#000000" stroke-width="3" stroke-miterlimit="10" cx="391.2" cy="290.4" r="10.2"/>
	</g>
</g>
<path id="dak" fill="none" stroke="#000000" stroke-width="3" stroke-linecap="round" stroke-linejoin="round" stroke-miterlimit="10" d="
	M1101.6,189.8c-0.6-0.7-1.5-0.7-2.1,0c-7.6,8.4-28.2,25.5-49,41c-2,1.5-4.6,1.9-6.9,1c-33.6-12.8-75.9-51.7-89-66.9
	c-0.6-0.7-1.6-0.7-2.2-0.1c-3.1,3.3-6.4,6.6-10,9.8c-10.8,10-23.3,19.8-35.4,28.5c-7.5,5.4-14.7,10.2-21.4,14.2
	c-4.1,2.5-8,4.8-11.5,6.7c-3.9,2.1-7.3,3.7-10.1,4.9c-1.5,0.7-3.3,0.7-4.9,0.1c-3.1-1.1-7.2-3-12-5.8c-1.1-0.7-2.4-1.5-3.6-2.2
	c-5.3-3.3-11.1-7.5-16.8-12.5c-3.1-2.8-6.3-5.8-9.4-9c-2.8-3-5.5-6.2-8.1-9.6c-0.6-0.8-1.2-1.6-1.8-2.4c-0.6-0.8-1.7-0.9-2.4-0.1
	c-1.2,1.5-2.5,3.1-3.8,4.6c-2.2,2.4-4.4,4.9-6.8,7.2c-5,4.9-10.2,9.4-15.7,13.6c-13.7,10.4-28.1,18.6-40.2,24.5
	c-12,5.9-23,11-26.7,12.3l486.5-0.7C1158.3,237.2,1111.8,201.7,1101.6,189.8z"/>
<g id="halte_1_">
	<path fill="none" stroke="#000000" stroke-width="2" stroke-miterlimit="10" d="M121,287.4l5.9-2.2c1.1-0.4,1.7-1.7,1.3-2.8
		l-0.2-0.7c-0.4-1.1-1.7-1.7-2.8-1.3l-5.9,2.2c-1.1,0.4-1.7,1.7-1.3,2.8l0.2,0.7C118.6,287.2,119.9,287.9,121,287.4z"/>
	<g id="halte">
		<path fill="none" stroke="#000000" stroke-width="3" stroke-miterlimit="10" d="M89.2,248.2h-2.6c-4.4,0-8-3.6-8-8v-24.4
			c0-4.4,3.6-8,8-8h2.6c4.4,0,8,3.6,8,8v24.4C97.2,244.7,93.6,248.2,89.2,248.2z"/>
		<rect x="85.8" y="169" fill="none" stroke="#000000" stroke-width="3" stroke-miterlimit="10" width="4.5" height="39"/>
		<rect x="85.8" y="248.2" fill="none" stroke="#000000" stroke-width="3" stroke-miterlimit="10" width="4.5" height="45.6"/>
		<path fill="none" stroke="#000000" stroke-width="3" stroke-miterlimit="10" d="M131,195.6h-27.8c-4.5,0-8.1-3.7-8.1-8.1v-13.3
			c0-4.5,3.7-8.1,8.1-8.1H131c4.5,0,8.1,3.7,8.1,8.1v13.3C139.1,192,135.4,195.6,131,195.6z"/>
		<rect x="90.4" y="170.9" fill="none" stroke="#000000" stroke-width="3" stroke-miterlimit="10" width="4.6" height="19.9"/>
		<text transform="matrix(1 0 0 1 97.4721 186.4775)" font-family="'Dosis-Bold'" font-size="14.9948">PKP15</text>
		<path fill="none" stroke="#000000" stroke-width="2" stroke-miterlimit="10" d="M109.9,277.4L115,291c0.8,2.1,3.3,3.3,5.4,2.4
			l10.9-4.1c2.1-0.8,3.3-3.3,2.4-5.4l-14.5-38.4c-0.8-2.1-3.3-3.3-5.4-2.4l-10.9,4.1c-2.1,0.8-3.3,3.3-2.4,5.4L109.9,277.4"/>
		<path fill="none" stroke="#000000" stroke-width="2" stroke-miterlimit="10" d="M119.9,276.8l0.9-0.3c1.5-0.6,2.4-2.4,1.8-3.9
			l-3.8-10.2c-0.6-1.5-2.4-2.4-3.9-1.8l-0.9,0.3c-1.5,0.6-2.4,2.4-1.8,3.9L116,275C116.6,276.6,118.3,277.4,119.9,276.8z"/>
		<line fill="none" stroke="#000000" stroke-width="2" stroke-miterlimit="10" x1="121" y1="250.1" x2="102.3" y2="257.1"/>
		<path fill="none" stroke="#000000" stroke-width="2" stroke-miterlimit="10" d="M123.9,254.4l0.3-0.2c0.6-0.2,0.9-0.9,0.7-1.5
			l-1-2.6c-0.2-0.6-0.9-0.9-1.5-0.7l-0.3,0.2c-0.6,0.2-0.9,0.9-0.7,1.5l1,2.6C122.6,254.3,123.3,254.7,123.9,254.4z"/>
		<circle fill="none" stroke="#000000" stroke-width="2" stroke-miterlimit="10" cx="105.7" cy="237.8" r="7.7"/>
		<circle fill="none" stroke="#000000" stroke-width="2" stroke-miterlimit="10" cx="105.7" cy="237.8" r="1.5"/>
		
			<line fill="none" stroke="#000000" stroke-width="2" stroke-miterlimit="10" stroke-dasharray="6,2" x1="98.5" y1="240.5" x2="100.6" y2="252.6"/>
		
			<line fill="none" stroke="#000000" stroke-width="2" stroke-miterlimit="10" stroke-dasharray="6,2" x1="113" y1="235.1" x2="119.3" y2="245.6"/>
		<path fill="none" stroke="#000000" stroke-width="3" stroke-miterlimit="10" d="M96.1,170.2h42c-1.4-2.4-4.1-4.1-7.1-4.1h-27.8
			C100.1,166.1,97.4,167.7,96.1,170.2z"/>
	</g>
</g>
</svg>
